<svg xmlns="http://www.w3.org/2000/svg" viewBox="0 0 50 50">
  <path d="M9 4C6.24 4 4 6.24 4 9L4 41C4 43.76 6.24 46 9 46L41 46C43.76 46 46 43.76 46 41L46 9C46 6.24 43.76 4 41 4L9 4 z M 15 8L17.400391 8L19 12L20.599609 8L23 8L20 15L20 19L18 19L18 14.990234C17.4 13.380234 15.41 9.01 15 8 z M 25 11C25.89 11 26.770078 11.269219 27.330078 11.949219C27.760078 12.439219 28 13.229531 28 14.269531L28 15.730469C28 16.770469 27.800859 17.490469 27.380859 17.980469C26.820859 18.650469 25.89 19 25 19C24.11 19 23.200625 18.650469 22.640625 17.980469C22.210625 17.490469 22 16.770469 22 15.730469L22 14.279297C22 13.239297 22.229922 12.439219 22.669922 11.949219C23.229922 11.269219 23.99 11 25 11 z M 29 11L31 11L31 17C31.05 17.27 31.339375 17.390625 31.609375 17.390625C32.019375 17.390625 32.54 16.910859 33 16.380859L33 11L35 11L35 19L33 19L33 17.619141C32.19 18.409141 31.499844 19.000703 30.589844 18.970703C29.929844 18.950703 29.470234 18.710469 29.240234 18.230469C29.100234 17.950469 29 17.499844 29 16.839844L29 11 z M 25 12.619141C24.8625 12.619141 24.730859 12.649297 24.611328 12.701172C24.491797 12.753047 24.383594 12.827422 24.292969 12.919922C24.202344 13.012422 24.128906 13.122266 24.078125 13.244141C24.027344 13.366016 24 13.500625 24 13.640625L24 16.449219C24 16.729219 24.111719 16.984922 24.292969 17.169922C24.383594 17.262422 24.491797 17.336797 24.611328 17.388672C24.730859 17.440547 24.8625 17.470703 25 17.470703C25.1375 17.470703 25.269141 17.440547 25.388672 17.388672C25.747266 17.233047 26 16.869219 26 16.449219L26 13.640625C26 13.080625 25.55 12.619141 25 12.619141 z M 24.990234 22L25.009766 22C25.009766 22 31.719219 22.000312 36.199219 22.320312C36.829219 22.390313 38.190156 22.400391 39.410156 23.650391C40.370156 24.590391 40.679688 26.75 40.679688 26.75C40.679688 26.75 41 28.280547 41 30.810547L41 33.179688C41 35.709688 40.679688 37.240234 40.679688 37.240234C40.679688 37.240234 40.370156 39.399844 39.410156 40.339844C38.190156 41.589844 36.829219 41.599922 36.199219 41.669922C31.719219 41.989922 25 42 25 42C25 42 16.679141 41.919688 14.119141 41.679688C13.409141 41.549687 11.809844 41.589609 10.589844 40.349609C9.6298437 39.399609 9.3203125 37.240234 9.3203125 37.240234C9.3203125 37.240234 9 35.709688 9 33.179688L9 30.810547C9 28.280547 9.3203125 26.75 9.3203125 26.75C9.3203125 26.75 9.6298438 24.590391 10.589844 23.650391C11.809844 22.400391 13.170781 22.390312 13.800781 22.320312C18.280781 22.000312 24.990234 22 24.990234 22 z M 12 26L12 27.978516L14 27.978516L14 38L16 38L16 27.978516L18 27.978516L18 26L12 26 z M 25 26L25 38L27 38L27 36.75C27.631 37.531 28.453 38 29.125 38C29.877 38 30.533156 37.595313 30.785156 36.820312C30.904156 36.401313 30.992 36.01 31 35.125L31 32.375C31 31.387 30.866234 30.642656 30.740234 30.222656C30.488234 29.441656 29.878 29.005 29.125 29C28.145 28.993 27.75 29.5 27 30.375L27 26L25 26 z M 18 29L18 35.685547C18 36.407547 18.100469 36.891984 18.230469 37.208984C18.450469 37.722984 18.899062 38 19.539062 38C20.269062 38 21.21 37.485766 22 36.634766L22 38L24 38L24 29L22 29L22 35.269531C21.56 35.853531 20.919531 36.289062 20.519531 36.289062C20.259531 36.289062 20.05 36.179578 20 35.892578L20 29L18 29 z M 35.029297 29C34.021297 29 33.234063 29.317016 32.664062 29.916016C32.244062 30.358016 32 31.080578 32 32.017578L32 35.083984C32 36.014984 32.2685 36.666516 32.6875 37.103516C33.2585 37.702516 34.044172 38 35.076172 38C36.107172 38 36.918844 37.686781 37.464844 37.050781C37.704844 36.769781 37.858781 36.453563 37.925781 36.101562C37.943781 35.942563 38 35.511 38 35L36 35L36 35.798828C36 36.262828 35.552 36.638672 35 36.638672C34.448 36.638672 34 36.261828 34 35.798828L34 34L38 34L38 33.423828L38 31.978516C38 31.043516 37.770422 30.359016 37.357422 29.916016C36.804422 29.317016 36.019297 29 35.029297 29 z M 35 30.447266C35.552 30.447266 36 30.824109 36 31.287109L36 32.615234L34 32.615234L34 31.287109C34 30.823109 34.448 30.447266 35 30.447266 z M 28.220703 30.746094C28.765703 30.746094 29 31.081 29 32.125L29 34.875C29 35.919 28.765703 36.279297 28.220703 36.279297C27.909703 36.279297 27.316 36.066 27 35.75L27 31.375C27.316 31.063 27.909703 30.746094 28.220703 30.746094 z" fill="#1247EC" />
</svg>