<svg xmlns="http://www.w3.org/2000/svg" width="375" viewBox="0 0 375 375" height="375" version="1.0"><defs><clipPath id="a"><path d="M 112.5 112.5 L 262.5 112.5 L 262.5 262.5 L 112.5 262.5 Z M 112.5 112.5"/></clipPath></defs><path fill="#FFF" d="M-37.5 -37.5H412.5V412.5H-37.5z"/><path fill="#FFF" d="M-37.5 -37.5H412.5V412.5H-37.5z"/><path fill="#F1F1F1" d="M-37.5 -37.5H412.5V412.5H-37.5z"/><g clip-path="url(#a)"><path d="M 122.332031 112.144531 L 112.183594 122.308594 L 124.546875 134.671875 C 120.355469 137.175781 117.523438 141.707031 117.523438 146.949219 L 117.523438 233.074219 C 117.523438 241.003906 123.949219 247.429688 131.878906 247.429688 L 237.304688 247.429688 L 252.316406 262.441406 L 262.464844 252.292969 Z M 162.957031 132.59375 L 261.066406 230.707031 L 261.066406 146.949219 C 261.066406 139.019531 254.640625 132.59375 246.710938 132.59375 Z M 232.355469 161.304688 C 236.316406 161.304688 239.535156 164.519531 239.535156 168.480469 C 239.535156 172.441406 236.316406 175.65625 232.355469 175.65625 C 228.394531 175.65625 225.179688 172.441406 225.179688 168.480469 C 225.179688 164.519531 228.394531 161.304688 232.355469 161.304688 Z M 164.160156 193.613281 L 182.117188 215.203125 L 192.152344 202.277344 L 215.773438 225.898438 L 139.054688 225.898438 Z M 164.160156 193.613281"/></g></svg>