<svg xmlns="http://www.w3.org/2000/svg" width="111" height="38" fill="none" viewBox="0 0 111 38">
  <rect width="60" height="38" fill="#121221" rx="4"/>
  <path fill="#F8F8F8" d="M19.088 13.992c-.352.053-.613.144-.784.272-.16.128-.272.33-.336.608-.053.277-.08.688-.08 1.232v8.928l-.384-.016-.432.016-6.944-8.8v6.144c0 .63.032 1.093.096 1.392.064.288.203.501.416.64.213.128.56.219 1.04.272V25a23.912 23.912 0 00-1.728-.048c-.587 0-1.05.016-1.392.048v-.32c.352-.053.608-.144.768-.272.17-.128.283-.33.336-.608.064-.277.096-.688.096-1.232v-7.2c0-.405-.032-.699-.096-.88a.53.53 0 00-.336-.368c-.16-.064-.416-.107-.768-.128v-.32c.341.032.805.048 1.392.048.533 0 .992-.016 1.376-.048l6.192 7.632v-5.008c0-.63-.032-1.088-.096-1.376-.064-.299-.203-.512-.416-.64-.213-.139-.56-.235-1.04-.288v-.32c.416.032.992.048 1.728.048.597 0 1.061-.016 1.392-.048v.32zm5.234 9.92c.875 0 1.579-.427 2.112-1.28l.288.096a3.84 3.84 0 01-1.152 1.776c-.544.48-1.226.72-2.048.72-1.13 0-2.032-.357-2.704-1.072-.661-.725-.992-1.792-.992-3.2 0-1.44.358-2.539 1.072-3.296.715-.768 1.664-1.152 2.848-1.152 2.006 0 3.008 1.184 3.008 3.552h-4.496c-.01.16-.016.41-.016.752 0 .704.096 1.29.288 1.76.203.47.459.81.768 1.024.32.213.662.32 1.024.32zm-.672-7.072c-.384 0-.704.24-.96.72-.245.47-.4 1.2-.464 2.192h2.512c.022-.843-.064-1.536-.256-2.08-.181-.555-.458-.832-.832-.832zm14.867-.064c.544 0 .949-.016 1.216-.048v.32a1.292 1.292 0 00-.608.4c-.182.203-.342.528-.48.976l-2.128 6.608a6.394 6.394 0 00-.528-.016c-.224 0-.395.005-.512.016L33.3 19.096l-1.776 5.936a5.786 5.786 0 00-.512-.016c-.235 0-.411.005-.528.016l-2.528-7.072c-.128-.373-.272-.613-.432-.72a.83.83 0 00-.496-.176v-.336c.693.064 1.45.096 2.272.096.533 0 1.226-.032 2.08-.096v.336c-.352 0-.608.027-.768.08-.15.053-.224.181-.224.384 0 .139.026.283.08.432l1.44 4.528 1.744-5.776.592.016.576-.016 2.08 6.112 1.008-3.216c.149-.501.224-.907.224-1.216 0-.832-.422-1.28-1.264-1.344v-.32c.501.032 1.05.048 1.648.048zm4.582-.272c.405 0 .779.053 1.12.16.341.096.602.208.784.336a.52.52 0 00.288.112c.096 0 .176-.048.24-.144a.966.966 0 00.144-.448h.336c-.043.544-.064 1.483-.064 2.816h-.336c-.096-.704-.31-1.29-.64-1.76-.32-.48-.79-.72-1.408-.72-.32 0-.587.09-.8.272-.203.181-.304.432-.304.752 0 .363.122.677.368.944.245.256.63.57 1.152.944l.464.336c.65.49 1.13.928 1.44 1.312.31.384.464.864.464 1.44 0 .47-.139.885-.416 1.248-.267.363-.63.64-1.088.832a3.9 3.9 0 01-1.52.288c-.587 0-1.088-.112-1.504-.336a7.787 7.787 0 00-.736-.336c-.107-.032-.203.005-.288.112-.075.096-.134.245-.176.448h-.336c.042-.608.064-1.675.064-3.2h.336c.213 1.963.933 2.944 2.16 2.944.31 0 .57-.09.784-.272.224-.192.336-.48.336-.864 0-.299-.07-.565-.208-.8a2.332 2.332 0 00-.496-.624 20.78 20.78 0 00-.912-.752c-.48-.384-.848-.693-1.104-.928a3.588 3.588 0 01-.64-.832 2.241 2.241 0 01-.256-1.072c0-.683.267-1.221.8-1.616s1.184-.592 1.952-.592z"/>
  <path fill="#121221" d="M69.897 20.424v2.784c0 .427.043.741.128.944.096.192.256.32.48.384.235.064.603.101 1.104.112V25a132.207 132.207 0 00-2.928-.048c-.533 0-1.205.01-2.016.032l-.512.016v-.32c.352-.021.608-.064.768-.128a.53.53 0 00.336-.368c.064-.181.096-.475.096-.88v-7.936c0-.405-.032-.699-.096-.88a.53.53 0 00-.336-.368c-.16-.064-.416-.107-.768-.128v-.32c.544.032 1.355.048 2.432.048l1.776-.016c.214-.01.459-.016.736-.016 1.44 0 2.539.288 3.296.864.758.565 1.136 1.328 1.136 2.288 0 .587-.149 1.152-.448 1.696-.298.533-.805.981-1.52 1.344-.704.363-1.642.544-2.816.544h-.848zm.992-6.432c-.288 0-.501.037-.64.112-.128.075-.218.208-.272.4-.053.192-.08.48-.08.864v4.736h.688c.864 0 1.462-.277 1.792-.832.331-.555.496-1.307.496-2.256 0-1.035-.154-1.797-.464-2.288-.298-.49-.805-.736-1.52-.736zm9.232 2.512c1.227 0 2.187.352 2.88 1.056.694.693 1.04 1.797 1.04 3.312s-.346 2.619-1.04 3.312c-.693.693-1.653 1.04-2.88 1.04-1.216 0-2.176-.347-2.88-1.04-.693-.693-1.04-1.797-1.04-3.312s.347-2.619 1.04-3.312c.704-.704 1.664-1.056 2.88-1.056zm0 .32c-.458 0-.826.336-1.104 1.008-.266.661-.4 1.675-.4 3.04s.134 2.379.4 3.04c.278.661.646.992 1.104.992.47 0 .838-.325 1.104-.976.267-.661.4-1.68.4-3.056 0-1.376-.138-2.395-.416-3.056-.266-.661-.629-.992-1.088-.992zm10.423-.32c.48 0 .843.144 1.088.432.246.288.368.635.368 1.04 0 .395-.117.72-.352.976-.224.245-.522.368-.896.368-.362 0-.65-.09-.864-.272a.964.964 0 01-.32-.752c0-.512.235-.928.704-1.248a.857.857 0 00-.192-.016.833.833 0 00-.256.032c-.405.064-.752.31-1.04.736-.277.427-.416.864-.416 1.312v4.24c0 .49.118.832.352 1.024.246.192.63.288 1.152.288V25c-.15 0-.272-.005-.368-.016a92.552 92.552 0 00-2.176-.048c-.288 0-.944.016-1.968.048-.085.01-.192.016-.32.016v-.336c.384 0 .65-.08.8-.24.15-.17.224-.475.224-.912v-5.04c0-.49-.074-.848-.224-1.072-.15-.224-.416-.336-.8-.336v-.336c.342.032.672.048.992.048.95 0 1.728-.075 2.336-.224v1.488c.203-.459.496-.827.88-1.104a2.106 2.106 0 011.296-.432zm5.213.224h1.888v.32h-1.888v6.464c0 .32.053.55.16.688.117.128.299.192.544.192.459 0 .821-.32 1.088-.96l.272.144c-.405 1.099-1.136 1.648-2.192 1.648-.704 0-1.237-.181-1.6-.544a1.78 1.78 0 01-.464-.832c-.075-.341-.112-.805-.112-1.392v-5.408h-1.344v-.32h1.344v-2.112c.885 0 1.653-.17 2.304-.512v2.624zm4.489 8.384c-.683 0-1.195-.176-1.536-.528-.33-.352-.496-.816-.496-1.392 0-.48.123-.875.368-1.184.256-.32.56-.565.912-.736.363-.17.821-.352 1.376-.544.587-.203 1.013-.384 1.28-.544.277-.17.416-.4.416-.688v-1.248c0-.448-.107-.795-.32-1.04-.203-.256-.523-.384-.96-.384-.512 0-.901.128-1.168.384.299.107.528.267.688.48.171.213.256.464.256.752 0 .363-.123.65-.368.864-.245.213-.544.32-.896.32-.373 0-.661-.117-.864-.352-.203-.235-.304-.528-.304-.88 0-.299.07-.55.208-.752.15-.213.373-.41.672-.592a3.7 3.7 0 011.056-.4 6.343 6.343 0 011.392-.144c.523 0 .976.053 1.36.16.384.107.704.288.96.544.235.235.389.523.464.864.085.341.128.805.128 1.392v4.352c0 .256.021.437.064.544.053.107.149.16.288.16.16 0 .352-.09.576-.272l.16.272c-.48.395-1.067.592-1.76.592-.587 0-.997-.117-1.232-.352s-.357-.55-.368-.944c-.533.864-1.317 1.296-2.352 1.296zm1.232-1.024c.416 0 .779-.219 1.088-.656v-3.28c-.128.213-.4.448-.816.704-.416.267-.731.533-.944.8-.213.267-.32.65-.32 1.152 0 .437.091.763.272.976.181.203.421.304.72.304zm8.201-.576c0 .437.075.741.224.912.15.16.416.24.8.24V25a74.41 74.41 0 00-2.144-.064c-.362 0-1.098.021-2.208.064v-.336c.374 0 .635-.08.784-.24.16-.17.24-.475.24-.912v-9.12c0-.49-.08-.848-.24-1.072-.149-.224-.41-.336-.784-.336v-.336c.342.032.672.048.992.048.928 0 1.707-.075 2.336-.224v11.04z"/>
</svg>
